<svg xmlns="http://www.w3.org/2000/svg" viewBox="0 0 64 64" role="img" aria-labelledby="title desc">
  <title id="title">Shiora favicon</title>
  <desc id="desc">Rounded burgundy square with gold S letter</desc>
  <defs>
    <linearGradient id="g" x1="0" y1="0" x2="1" y2="1">
      <stop offset="0%" stop-color="#a91e47"/>
      <stop offset="100%" stop-color="#6a1029"/>
    </linearGradient>
  </defs>
  <rect x="4" y="4" width="56" height="56" rx="16" fill="url(#g)"/>
  <path d="M42.3 20.8c-1.9-2.2-5-3.8-9.8-3.8-5.7 0-10.2 2.9-10.2 8 0 4.9 4.2 6.6 9.2 7.7 4.3.9 5.8 1.7 5.8 3.5 0 1.9-1.9 3.1-5 3.1-3.8 0-6.5-1.4-8.6-3.8l-3.4 4.1c2.4 3 6.8 5.1 11.8 5.1 6.8 0 11.5-3.3 11.5-8.8 0-5.4-4.2-7-9.8-8.2-3.9-.8-5.3-1.5-5.3-3.1 0-1.7 1.6-2.8 4.2-2.8 3 0 5.4 1.1 7.2 3.1l3.4-4.1z" fill="#f6d070"/>
</svg>
